<svg width="50" height="50" viewBox="0 0 100 100" fill="none" xmlns="http://www.w3.org/2000/svg">
<path d="M50.0224 24.3944C35.8614 24.3944 24.4392 35.8167 24.4392 49.9776C24.4392 64.1386 35.8614 75.5608 50.0224 75.5608C64.1833 75.5608 75.6056 64.1386 75.6056 49.9776C75.6056 35.8167 64.1833 24.3944 50.0224 24.3944ZM50.0224 66.61C40.8712 66.61 33.3899 59.1511 33.3899 49.9776C33.3899 40.8042 40.8489 33.3452 50.0224 33.3452C59.1958 33.3452 66.6548 40.8042 66.6548 49.9776C66.6548 59.1511 59.1735 66.61 50.0224 66.61ZM82.6192 23.3479C82.6192 26.6655 79.9474 29.3151 76.6521 29.3151C73.3345 29.3151 70.6849 26.6433 70.6849 23.3479C70.6849 20.0526 73.3567 17.3808 76.6521 17.3808C79.9474 17.3808 82.6192 20.0526 82.6192 23.3479ZM99.5634 29.4042C99.1849 21.4108 97.3591 14.3304 91.5032 8.49678C85.6696 2.66318 78.5892 0.837402 70.5958 0.436621C62.3575 -0.030957 37.6649 -0.030957 29.4267 0.436621C21.4556 0.815137 14.3751 2.64092 8.51924 8.47451C2.66338 14.3081 0.859863 21.3886 0.459082 29.3819C-0.00849609 37.6202 -0.00849609 62.3128 0.459082 70.5511C0.837598 78.5444 2.66338 85.6249 8.51924 91.4585C14.3751 97.2921 21.4333 99.1179 29.4267 99.5186C37.6649 99.9862 62.3575 99.9862 70.5958 99.5186C78.5892 99.1401 85.6696 97.3143 91.5032 91.4585C97.3368 85.6249 99.1626 78.5444 99.5634 70.5511C100.031 62.3128 100.031 37.6425 99.5634 29.4042ZM88.9204 79.3905C87.1837 83.7546 83.8216 87.1167 79.4353 88.8757C72.8669 91.4808 57.281 90.8796 50.0224 90.8796C42.7638 90.8796 27.1556 91.4585 20.6095 88.8757C16.2454 87.139 12.8833 83.7768 11.1243 79.3905C8.51924 72.8222 9.12041 57.2362 9.12041 49.9776C9.12041 42.719 8.5415 27.1108 11.1243 20.5647C12.861 16.2007 16.2231 12.8386 20.6095 11.0796C27.1778 8.47451 42.7638 9.07568 50.0224 9.07568C57.281 9.07568 72.8892 8.49678 79.4353 11.0796C83.7993 12.8163 87.1614 16.1784 88.9204 20.5647C91.5255 27.1331 90.9243 42.719 90.9243 49.9776C90.9243 57.2362 91.5255 72.8444 88.9204 79.3905Z" fill="#A0A0A0"/>
</svg>
