<svg width="114" height="93" viewBox="0 0 114 93" fill="none" xmlns="http://www.w3.org/2000/svg">
<path d="M102.282 23.2808C102.354 24.2935 102.354 25.3063 102.354 26.319C102.354 57.2058 78.8453 92.7948 35.8782 92.7948C22.6408 92.7948 10.3439 88.9608 0 82.3063C1.88078 82.5232 3.68897 82.5955 5.64211 82.5955C16.5645 82.5955 26.6192 78.9066 34.6484 72.6134C24.3769 72.3963 15.769 65.6692 12.8032 56.4103C14.25 56.6271 15.6966 56.7719 17.2158 56.7719C19.3134 56.7719 21.4113 56.4824 23.3642 55.9763C12.6587 53.8061 4.62925 44.4027 4.62925 33.0461V32.7568C7.73953 34.4929 11.3566 35.5779 15.1901 35.7224C8.8969 31.5269 4.77397 24.3658 4.77397 16.2642C4.77397 11.9242 5.93112 7.94581 7.95662 4.47371C19.4579 18.6513 36.7461 27.9101 56.1316 28.9229C55.7701 27.1869 55.553 25.3787 55.553 23.5703C55.553 10.6945 65.9693 0.206055 78.9172 0.206055C85.6443 0.206055 91.7204 3.02711 95.9882 7.58422C101.269 6.57157 106.332 4.61843 110.817 1.94211C109.081 7.36735 105.392 11.9245 100.545 14.8176C105.247 14.3116 109.804 13.0092 114 11.201C110.817 15.8303 106.839 19.9532 102.282 23.2808Z" fill="#A0A0A0"/>
</svg>
