<svg id="Layer_1" data-name="Layer 1" xmlns="http://www.w3.org/2000/svg" xmlns:xlink="http://www.w3.org/1999/xlink" viewBox="0 0 333.14 321.12" width="406" height="306" class="illustration styles_illustrationTablet__1DWOa"><defs><linearGradient id="linear-gradient" x1="135.1" y1="166.9" x2="87.28" y2="105.14" gradientTransform="matrix(1, 0, 0, -1, 0, 352)" gradientUnits="userSpaceOnUse"><stop offset="0.01"></stop><stop offset="0.08" stop-opacity="0.69"></stop><stop offset="0.21" stop-opacity="0.32"></stop><stop offset="1" stop-opacity="0"></stop></linearGradient></defs><title>14</title><path d="M361.61,312.06c-13.91,18.76-37.83,28-61.15,29.43s-46.45-4-69.14-9.57c-20.29-5-42.48-11.78-63.61-10.73-15.31.75-29.93,6.25-45.55,6.19-26.11-.09-47.17-11.53-60.88-31.72a87.85,87.85,0,0,1-7.71-14,.68.68,0,0,0-.11-.25c-16.88-38.41-14.84-85.62,8.38-121,7.72-11.77,17.39-22.19,24.67-34.23,6.54-10.82,11-22.75,17-33.86,20.93-38.61,61.85-64.78,105.18-70.52a130.84,130.84,0,0,1,45.8,1.85c39.88,8.94,75.7,37.47,90,75.77,9.32,25,9.4,52.4,14.3,78.65,4.24,22.72,12.14,44.69,15.37,67.57S375.38,293.49,361.61,312.06Z" transform="translate(-42.36 -20.6)" fill="#f37b7b" opacity="0.18" style="isolation: isolate;"></path><path d="M139.07,288.6c-24.49,9.68-51.29,9.47-77.79,7.06a87.85,87.85,0,0,1-7.71-14,460.76,460.76,0,0,1,65.81-6c5.15-.1,21.15-2.89,25.8.57C151.64,281.05,145.32,286.13,139.07,288.6Z" transform="translate(-42.36 -20.6)" fill="#f37b7b" opacity="0.18" style="isolation: isolate;"></path><polygon points="287.14 297.64 136.04 239.61 136.04 60.99 287.14 119.02 287.14 297.64" fill="#f37b7b" opacity="0.18" style="isolation: isolate;"></polygon><path d="M124.93,223.67s10.78,20.37,12.79,26.77,1.84,25.26,1.84,25.26h-5.87s0-19-2.49-22.23-16.37-19.57-16.37-19.57Z" transform="translate(-42.36 -20.6)" fill="#473f47"></path><path d="M126.13,226.12s-6.54,26.42-9.92,32.29S103.58,275,103.58,275l-5-2.67s12.81-16.81,12.1-21.74-2.53-23.75-2.53-23.75S117.19,221.94,126.13,226.12Z" transform="translate(-42.36 -20.6)" fill="#473f47"></path><circle cx="96.56" cy="177.71" r="20.58" fill="#f37b7b"></circle><path d="M104,188.24s-5.21,2.66-3.27,9.07,8.07,20.81,7.41,25.08,0,4.4,0,4.4,13.69,4.94,18-.67c0,0-8.15-28.81-9.88-32.42S109.58,186.12,104,188.24Z" transform="translate(-42.36 -20.6)" fill="#fff"></path><path d="M106.67,202.47a19.48,19.48,0,0,0,2.12,4.47,12.81,12.81,0,0,0,1.61,2.32c1.76,1.89,4.4,2.61,6.76,3.66a3.75,3.75,0,0,1,1.15.69,4.44,4.44,0,0,1,.82,1.35c1.28,2.8,3,5.64,5.81,6.91-1.15-4.42-2.3-8.83-3.64-13.19a7.39,7.39,0,0,0-.94-2.2,7.81,7.81,0,0,0-1.83-1.66c-3-2.17-5.87-4.37-8.85-6.5-1-.72-2.08-1.54-2.94-.23C106,199.23,106.33,201.26,106.67,202.47Z" transform="translate(-42.36 -20.6)" fill="url(#linear-gradient)"></path><path d="M113.66,177c.3.3.67.61.67,1a1.81,1.81,0,0,1-.38.86c-.9,1.54-.08,3.73-1.16,5.13a3,3,0,0,1-1.57,1,5.48,5.48,0,0,0-1.77.57,2.21,2.21,0,0,0-.66,1.55c-.06.69.06,1.39,0,2.09a1.37,1.37,0,0,1-.58,1.21,1.28,1.28,0,0,1-.61.12,15.09,15.09,0,0,1-3.61-.28,1.14,1.14,0,0,1-.47-.19,1,1,0,0,1-.26-.57c-.51-2.31-1-4.63-1.55-6.94a16.47,16.47,0,0,0-1.12-2.41,8.1,8.1,0,0,1-.41-3.62,7,7,0,0,1,.92-2.59,5.3,5.3,0,0,1,1.64-1.88,6.38,6.38,0,0,1,1.64-.68c2-.61,5.09-1.43,6.81.27C112.63,173.05,112.17,175.51,113.66,177Z" transform="translate(-42.36 -20.6)" fill="#fcbdba"></path><path d="M113.86,179.59c-.42-.26-1.8.29-2.3.28-1.63-.05-3,.75-4.28-.23a6.23,6.23,0,0,1-1.87-3.44.74.74,0,0,1,0-.21.55.55,0,0,1,.1-.25c.61-.88,1.84-1,2.88-1.23a10.3,10.3,0,0,0,4.81-3,1.84,1.84,0,0,0,.65-1.14,1.61,1.61,0,0,0-.77-1.25,5.84,5.84,0,0,0-4.46-.78,45.46,45.46,0,0,0-4.46,1.28c-1.41.4-2.87.64-4.28,1.09a3.21,3.21,0,0,0-.84.39,2.47,2.47,0,0,0-.75,1,3.69,3.69,0,0,0,0,3.27,1.32,1.32,0,0,1,.22.5,1.51,1.51,0,0,1-.06.52c-.35,1.53.42,3.06,1.16,4.44l2,3.63a3.27,3.27,0,0,0,.86,1.13,1.11,1.11,0,0,0,1.32,0c.4-.34.42-1,.9-1.28a1.14,1.14,0,0,1,1,.12c.86.41,1.57,1.06,2.4,1.52a6.35,6.35,0,0,0,4.75.59A3.33,3.33,0,0,0,114,186a2.54,2.54,0,0,0,.6-2.63C114.44,182.4,114.75,180.14,113.86,179.59Z" transform="translate(-42.36 -20.6)" fill="#473f47"></path><path d="M105.18,198.28s5.61,14.41,27.84,17.17l.8-3.11s-14.85-5.87-18-11.83a38.81,38.81,0,0,1-2.38-5.21,4.9,4.9,0,0,0-6.19-3.12c-.22.08-.44.17-.65.27C105,193.33,104,195,105.18,198.28Z" transform="translate(-42.36 -20.6)" fill="#fff"></path><path d="M137.56,211.7a1.59,1.59,0,0,1-.47,1.05,13.09,13.09,0,0,0,4.46.82,1.09,1.09,0,0,1,.78.22c.29.32.06.84-.22,1.17a7,7,0,0,1-4.48,2.3,4.84,4.84,0,0,1-3.29-.53,6.29,6.29,0,0,1-1.72-1.91.91.91,0,0,1,0-1.18c.18-.33.43-1,.8-1.16a3,3,0,0,1,1.19,0C135.59,212.24,136.51,211.59,137.56,211.7Z" transform="translate(-42.36 -20.6)" fill="#fcbdba"></path><path d="M94.47,275.36a1.15,1.15,0,0,0-.37.77,1.1,1.1,0,0,0,.37.63A27.2,27.2,0,0,0,103,283c.88.42,2.1.71,2.7-.06s0-1.93-.54-2.82a9.28,9.28,0,0,1-1.24-3.86,3.52,3.52,0,0,0-.28-1.36c-.62-1.16-3.71-2.37-5-2.36C96.91,272.51,95.51,274.17,94.47,275.36Z" transform="translate(-42.36 -20.6)" fill="#f37b7b"></path><path d="M131.74,279.88a.86.86,0,0,0,.7,1.22,27.38,27.38,0,0,0,10.45,1.16c1-.08,2.18-.43,2.31-1.39s-1-1.67-1.87-2.18a9.48,9.48,0,0,1-3-2.74,3.51,3.51,0,0,0-.92-1c-1.11-.7-4.39-.21-5.5.44C132.45,276.19,132.06,278.33,131.74,279.88Z" transform="translate(-42.36 -20.6)" fill="#f37b7b"></path><path d="M133.11,202.44a1.83,1.83,0,0,0,.39.49,2.58,2.58,0,0,0,.83.41c3.53,1.23,7.24,2.28,11,1.95a2.72,2.72,0,0,0,1.15-.29,1.06,1.06,0,0,0,.57-1,2.74,2.74,0,0,1-.08-.5c0-.64,1-.74,1.29-1.33a1,1,0,0,0-.31-1.08c-.28-.29-.63-.5-.9-.8a3.22,3.22,0,0,0,1.14-1.06,1.28,1.28,0,0,0-.09-1.46c-.28-.3-.78-.46-.81-.87s.35-.62.59-.91a1.71,1.71,0,0,0-.41-2.28,3.65,3.65,0,0,0-2.44-.63,18.36,18.36,0,0,1-2.57.12.75.75,0,0,1-.56-.23c-.18-.23-.07-.56,0-.83a6.12,6.12,0,0,0-.39-5.48,1.85,1.85,0,0,0-1.8-.95,1.6,1.6,0,0,0-1,.95,6.67,6.67,0,0,0-.32,1.39c-.5,2.83-1.84,5.85-4.7,6.91-.49.18-.92.08-1.25.53a2.58,2.58,0,0,0-.3,1.36,11.58,11.58,0,0,0,.84,5.3Z" transform="translate(-42.36 -20.6)" fill="#fff"></path><rect x="85.64" y="174.3" width="3.07" height="8.14" rx="1.18" fill="#fff"></rect><polygon points="273.17 282.28 122.07 224.25 122.07 16.61 273.17 74.65 273.17 282.28" fill="#fff"></polygon><polygon points="246.74 217.4 139.15 175.53 139.15 65.05 246.74 106.92 246.74 217.4" fill="#f37b7b" opacity="0.42" style="isolation: isolate;"></polygon><polygon points="142.43 163 162.71 143.84 180.17 160.53 208.06 139.9 243.55 199.5 243.55 211.16 142.43 170.74 142.43 163" fill="#f37b7b"></polygon><ellipse cx="167.12" cy="104.03" rx="7.89" ry="11.55" fill="#f37b7b"></ellipse><ellipse cx="147.1" cy="52.73" rx="5.64" ry="8.26" fill="#f37b7b"></ellipse><path d="M230.06,88.62,202,77.18a4.11,4.11,0,0,1-2.37-3.54h0A1.61,1.61,0,0,1,202,72l28.1,11.45A4.11,4.11,0,0,1,232.43,87h0a1.59,1.59,0,0,1-1.36,1.81A1.62,1.62,0,0,1,230.06,88.62Z" transform="translate(-42.36 -20.6)" fill="#f37b7b" opacity="0.42" style="isolation: isolate;"></path><path d="M228.92,95.93l-27-11a3.5,3.5,0,0,1-2.27-2.7h0c0-1,1-1.36,2.27-.85l27,11a3.5,3.5,0,0,1,2.28,2.7h0C231.2,96.06,230.18,96.44,228.92,95.93Z" transform="translate(-42.36 -20.6)" fill="#f37b7b" opacity="0.42" style="isolation: isolate;"></path><polygon points="243.52 237.84 139.15 196.81 139.15 193.69 243.52 234.71 243.52 237.84" fill="#f37b7b" opacity="0.42" style="isolation: isolate;"></polygon><polygon points="243.52 244.11 139.15 203.09 139.15 199.96 243.52 240.99 243.52 244.11" fill="#f37b7b" opacity="0.42" style="isolation: isolate;"></polygon><polygon points="243.52 250.39 139.15 209.37 139.15 206.24 243.52 247.26 243.52 250.39" fill="#f37b7b" opacity="0.42" style="isolation: isolate;"></polygon><polygon points="243.52 256.66 139.15 215.64 139.15 212.52 243.52 253.54 243.52 256.66" fill="#f37b7b" opacity="0.42" style="isolation: isolate;"></polygon><polygon points="243.52 262.94 139.15 221.92 139.15 218.79 243.52 259.82 243.52 262.94" fill="#f37b7b" opacity="0.42" style="isolation: isolate;"></polygon><path d="M186.21,205.77s-1.6-4.08-3.4-2,3.3,7.54,3.3,7.54,3.67-1.64,3.7-3.8S187.1,203,186.21,205.77Z" transform="translate(-42.36 -20.6)" fill="#f37b7b"></path><path d="M199.27,216.23a.29.29,0,0,1-.14-.08L197.91,215a3.51,3.51,0,0,1-2.08,0,5.83,5.83,0,0,1-4-5.22,2.87,2.87,0,0,1,2.66-3.08,2.79,2.79,0,0,1,1.34.22,5.81,5.81,0,0,1,3.95,5.22,3.12,3.12,0,0,1-.78,2.18l.52,1.54a.35.35,0,0,1-.06.38A.21.21,0,0,1,199.27,216.23Zm-3.44-8.67a2.43,2.43,0,0,0-3.19,1.27,2.32,2.32,0,0,0-.2,1.07,4.91,4.91,0,0,0,3.39,4.38,2.93,2.93,0,0,0,1.94,0,.25.25,0,0,1,.27.08l.63.6-.25-.75a.38.38,0,0,1,.05-.37,2.45,2.45,0,0,0,.75-1.88A4.91,4.91,0,0,0,195.83,207.56Z" transform="translate(-42.36 -20.6)" fill="#f37b7b"></path><path d="M205.68,214.58a.4.4,0,0,1-.19-.15l-2.57-3.68a.43.43,0,0,1-.07-.41.21.21,0,0,1,.25-.13h0l7.27,2.64a.41.41,0,0,1,.26.36.26.26,0,0,1-.16.32l-4.7,1Zm-1.82-3.41,1.88,2.68,3.42-.76Z" transform="translate(-42.36 -20.6)" fill="#f37b7b"></path><path d="M206.43,219.12h-.06a.45.45,0,0,1-.22-.33l-.74-4.55a.27.27,0,0,1,.16-.33l4.7-1a.31.31,0,0,1,.32.19.4.4,0,0,1,0,.42l-4,5.59A.18.18,0,0,1,206.43,219.12Zm-.43-4.58.57,3.45,3-4.25Z" transform="translate(-42.36 -20.6)" fill="#f37b7b"></path></svg>