<svg id="Layer_1" data-name="Layer 1" xmlns="http://www.w3.org/2000/svg" xmlns:xlink="http://www.w3.org/1999/xlink" viewBox="0 0 369.46 287.27" width="406" height="306" class="illustration styles_illustrationTablet__1DWOa"><defs><linearGradient id="linear-gradient" x1="182.47" y1="211.1" x2="178.35" y2="205.27" gradientTransform="matrix(1, 0, 0, -1, -18.92, 326)" gradientUnits="userSpaceOnUse"><stop offset="0.01" stop-color="#fff"></stop><stop offset="1" stop-color="#fff" stop-opacity="0"></stop></linearGradient></defs><title>12</title><path d="M162.06,63.16,142.65,79.37c-7.08,5.92-14.2,11.86-22,16.82-19.45,12.36-42.58,18.24-61.49,31.42a95.48,95.48,0,0,0-37.95,55.94c-10.35,44.18,15.25,106,60.71,120.66,16.88,5.46,35.06,4.18,52.8,4.15,44.38-.08,88.8,8,133,3.6s90.5-24.79,109.46-64.92c17.29-36.59,12.27-88.38.41-125.86-8-25.42-22.35-49.34-43.26-65.89C305.09,32.17,265.62,25.41,228.5,28.6c-10.1.86-20.31,2.45-29.49,6.75-8.27,3.88-15.39,9.8-22.4,15.66Z" transform="translate(-18.92 -26)" fill="#F9EE95" opacity="0.18" style="isolation: isolate;"></path><rect x="148.5" width="124.03" height="239.82" rx="17.83" fill="#F9EE95"></rect><rect x="150.95" y="3.02" width="119.13" height="233.39" rx="17.24" fill="#473f47"></rect><path d="M285.76,48.22V240.83a16.47,16.47,0,0,1-16.63,16.3H189.82a16.74,16.74,0,0,1-8.27-2.16,16.22,16.22,0,0,1-8.38-14.14V48.22a16.48,16.48,0,0,1,16.65-16.3h13.4v2.37a7.88,7.88,0,0,0,5,7.17,8.39,8.39,0,0,0,3.05.58h36.84a8,8,0,0,0,8.05-7.88V31.92h13a16.78,16.78,0,0,1,11.49,4.52A16.12,16.12,0,0,1,285.76,48.22Z" transform="translate(-18.92 -26)" fill="#fff"></path><rect x="187.29" y="35.63" width="104.88" height="100.01" fill="#fff"></rect><rect x="187.29" y="35.63" width="104.88" height="100.01" fill="#F9EE95" opacity="0.42" style="isolation: isolate;"></rect><rect x="192.23" y="40.13" width="94.32" height="80.27" fill="#fff"></rect><polygon points="192.22 84.33 230.69 60.89 256.58 86.79 258.67 85.63 249.47 76.43 257.57 68.32 286.54 91.11 286.54 120.4 192.88 120.4 192.22 84.33" fill="#F9EE95" opacity="0.22" style="isolation: isolate;"></polygon><path d="M171.28,127.42c-.19-.29-.55-.61-.83-.41a.82.82,0,0,0-.24.41,1.9,1.9,0,0,1-1.67,1c-.65.05-1.34-.1-2-.1a5.67,5.67,0,0,0-4.44,2.4,9,9,0,0,0-1.6,4.91,6.24,6.24,0,0,0,1.2,4.44c1.57,1.78,4.28,1.84,6.65,1.75l2.15-.07a2,2,0,0,0,2.24-1.64c.89-2.14,2.49-4.28,1.38-6.44C173.16,131.77,172.58,129,171.28,127.42Z" transform="translate(-18.92 -26)" fill="#b2857f"></path><path d="M213,283.06a13.46,13.46,0,0,1-1.06,5.67,9.55,9.55,0,0,1-4.13,3.83,16.24,16.24,0,0,1-12,1.18,2.41,2.41,0,0,1-1.38-.84,1.91,1.91,0,0,1-.25-1.19c.09-2.22,1.57-4.11,3.16-5.66s3.36-3,4.33-5c1.84-3.73.47-13.65,7.5-12.05C215,270.35,213.18,278.91,213,283.06Z" transform="translate(-18.92 -26)" fill="#b2857f"></path><path d="M214,289.78s1,2.46-.24,3.89-13.85,9.27-22.35,3S203,289.49,203,289.49Z" transform="translate(-18.92 -26)" fill="#F9EE95"></path><path d="M213.5,284.07a1.8,1.8,0,0,0-2.27.59,7.42,7.42,0,0,1-6.75,2.42c-2.77-.66-3.87-3.85-5.23-3.86s-8.72,6.22-9.15,8.91,3.33,4.65,7.47,4.92,13.54-2.62,15.32-4.8S214.46,285.44,213.5,284.07Z" transform="translate(-18.92 -26)" fill="#fff"></path><path d="M237.1,286.88a13.37,13.37,0,0,1-1,5.66,9.46,9.46,0,0,1-4.14,3.83,16.24,16.24,0,0,1-12,1.19,2.4,2.4,0,0,1-1.39-.84,2.09,2.09,0,0,1-.25-1.2c.09-2.21,1.58-4.1,3.16-5.66s3.34-3,4.34-4.95c1.83-3.73.47-13.64,7.49-12.05C239.09,274.19,237.26,282.75,237.1,286.88Z" transform="translate(-18.92 -26)" fill="#b2857f"></path><path d="M238.07,293.62s1,2.45-.23,3.89-13.83,9.27-22.32,3S227,293.35,227,293.35Z" transform="translate(-18.92 -26)" fill="#F9EE95"></path><path d="M237.58,287.91a1.8,1.8,0,0,0-2.27.59,7.33,7.33,0,0,1-6.76,2.42c-2.75-.66-3.87-3.85-5.22-3.86s-8.72,6.23-9.12,8.91,3.32,4.65,7.48,4.92,13.52-2.62,15.31-4.79S238.54,289.29,237.58,287.91Z" transform="translate(-18.92 -26)" fill="#fff"></path><path d="M242.12,183.25s1.31,72.12-4,96.18l-13.56,1.67-9.38-98.74Z" transform="translate(-18.92 -26)" fill="#473f47"></path><path d="M200.23,175.38s-6.37,38.9,1.36,101.38l13.56,1.67,9.38-98.75Z" transform="translate(-18.92 -26)" fill="#473f47"></path><path d="M184.36,144.39c.15,2.61,1,4.88,3.27,5.63a3.83,3.83,0,0,0,.58.16c4.17.83,9.63-2.34,13.43-5.1a52.38,52.38,0,0,0,4.57-3.7V113.49L186,134.21S184.08,139.81,184.36,144.39Z" transform="translate(-18.92 -26)" fill="#F9EE95"></path><path d="M201.48,145c0,1.31-.16,2.61-.17,3.92,0,7.19,1.67,14.62-.47,21.67-.49,1.58-1.16,3.27-.61,4.82a6,6,0,0,0,3,2.9c6.34,3.47,13.68,4.53,20.83,5.53,5.38.76,13,2.36,18-.54,2.12-1.24,2.84-3.54,3.51-5.83,2.16-7.3,2.8-15.15,3.36-22.71q.12-1.5.21-3,.62-10.33.41-20.68c-.09-5-.49-10.41-3.75-14.19-4.35-5-12.76-8.36-19.14-9.53a21.78,21.78,0,0,0-6.29-.35,26.66,26.66,0,0,0-8.5,2.89c-3.16,1.57-6,2.89-7.54,6a43,43,0,0,0-3.53,11.41,40.49,40.49,0,0,0-.26,11.21c.19,1.82.65,3.64.84,5.46A5,5,0,0,1,201.48,145Z" transform="translate(-18.92 -26)" fill="#F9EE95"></path><path d="M214,145.91c0,23.7-10.7,42.92-23.9,42.92h-3.41c-12.66-1.1-20.5-19.92-20.5-42.92,0-23.24,7.44-42.19,20.29-42.92h3.62C203.34,103,214,122.21,214,145.91Z" transform="translate(-18.92 -26)" fill="#F9EE95"></path><path d="M214,145.91c0,23.7-10.7,42.92-23.9,42.92h-3.41c-12.66-1.1-20.5-19.92-20.5-42.92,0-23.24,7.44-42.19,20.29-42.92h3.62C203.34,103,214,122.21,214,145.91Z" transform="translate(-18.92 -26)" fill="#020202" opacity="0.1" style="isolation: isolate;"></path><ellipse cx="167.6" cy="119.91" rx="23.91" ry="42.92" fill="#F9EE95"></ellipse><ellipse cx="167.6" cy="119.91" rx="20.36" ry="36.55" fill="#fff"></ellipse><ellipse cx="167.6" cy="119.91" rx="16.94" ry="30.42" fill="#F9EE95"></ellipse><ellipse cx="167.6" cy="119.91" rx="12.54" ry="22.51" fill="#fff"></ellipse><ellipse cx="167.6" cy="119.91" rx="8.76" ry="15.72" fill="#F9EE95"></ellipse><ellipse cx="167.6" cy="119.91" rx="4.56" ry="8.18" fill="#fff"></ellipse><path d="M230.85,185.71c2.08.62,6.89-1.31,8.5-1.58,1-.17,1.82-.65,2.77-.88,4.77-1.19,5.34-14.58,5.8-18.18,1.24-9.52,3.13-19.39,3.27-28.94,0-3.68-.05-7.43-1.26-10.91s-3.68-6.69-7.15-7.94c-6.09-2.2-7.9,17.06-8.73,21-1.05,5-2.12,10-3.15,15-.75,3.65-.33,6.57-3.22,9.28a1.33,1.33,0,0,1-.74.43,1.58,1.58,0,0,1-.73-.18,11.48,11.48,0,0,0-3.83-.91,3,3,0,0,0-1.73.27,2.91,2.91,0,0,0-1.17,1.91,8.6,8.6,0,0,0,3.68,9c1.3.81,2.79,1.25,4.09,2,4.93,3,.8,6.19,2.76,9.87A1.3,1.3,0,0,0,230.85,185.71Z" transform="translate(-18.92 -26)" fill="#020202" opacity="0.1" style="isolation: isolate;"></path><path d="M214.37,98.11a4.64,4.64,0,0,0,2.42,2.22c1.23.5,2.62.57,3.61,1.47h0a6.31,6.31,0,0,1,1.62,3.5c.29,1.35.58,2.69.88,4,.14.68.3,1.35.44,2a2.84,2.84,0,0,0,.38,1,2.51,2.51,0,0,0,2,.86,8.3,8.3,0,0,0,4.53-1.17,1.36,1.36,0,0,0,.57-.52,1.55,1.55,0,0,0,.09-.9l-.51-5.82a7.4,7.4,0,0,1,.72-4.69c1.5-3.13,3.12-6.26,3.71-9.71a8,8,0,0,0-.4-4.79,8.23,8.23,0,0,0-5.31-3.82,15.42,15.42,0,0,0-8.75-.08c-1.06.36-1.39,1.09-1.89,2-.75,1.48-1.45,3-2.08,4.53-.71,1.74-1.33,3.53-1.89,5.35A6.27,6.27,0,0,0,214.37,98.11Z" transform="translate(-18.92 -26)" fill="#b2857f"></path><path d="M222.06,82.86c1.6,1.43,4.36.47,6.09,1.74s1.58,3.76,1.59,5.57c0,.32-.57,4-1,3.76.7.5,1.24-.86,2-1.26s1.9.76,1.71,1.76a5.94,5.94,0,0,1-1.64,2.51,8.62,8.62,0,0,0-1.91,5.33c0,.45.17,1,.63,1.06s1-.63,1.31-.87c1.85-1.25,4.08-1.77,5.88-3.08a5.58,5.58,0,0,0,2.35-3.6,11.2,11.2,0,0,1,.29-3A8.79,8.79,0,0,1,240.73,91a2,2,0,0,0,.44-2.06c-.15-.3-.42-.52-.57-.82a3,3,0,0,1,0-2,6.67,6.67,0,0,0-1-5.38c-.89-1.14-2.22-1.85-3.25-2.87s-1.71-2.7-.91-3.91c.3-.47.83-.91.72-1.46a1.29,1.29,0,0,0-.87-.8,5.66,5.66,0,0,0-5.3.59c.59-.69-.23-1.84-1.13-1.87a3.65,3.65,0,0,0-2.38,1.18,1.43,1.43,0,0,0-1.25-1.18,3.48,3.48,0,0,0-1.8.31A10.06,10.06,0,0,0,218.89,74a6.35,6.35,0,0,0-1.13,5.36,3,3,0,0,0,1.78,2.15,8.18,8.18,0,0,1,1.55.39A5.82,5.82,0,0,1,222.06,82.86Z" transform="translate(-18.92 -26)" fill="#473f47"></path><path d="M219.53,101.18l.47.13a.62.62,0,0,1,.36.18.58.58,0,0,1,0,.32,6.31,6.31,0,0,1,1.62,3.5c.29,1.35.58,2.69.88,4a32.65,32.65,0,0,0,3.27-8.25A31.65,31.65,0,0,1,219.53,101.18Z" transform="translate(-18.92 -26)" fill="#996764"></path><path d="M217.22,150.27a2.5,2.5,0,0,0-2.15-.91,8.4,8.4,0,0,0-1.31.81,3.07,3.07,0,0,1-1.23.28,12.66,12.66,0,0,1-5.07-.71,6.22,6.22,0,0,0-2.61-.66,3.88,3.88,0,0,0-2.62,1.87,7.35,7.35,0,0,0-.24,8,7.73,7.73,0,0,0,2.61,2.38,16.17,16.17,0,0,0,7.49,1.87c2.6.11,5.23-.08,7.8.11a2.87,2.87,0,0,0,1.8-.23,2.79,2.79,0,0,0,.86-2.28c.1-2,.43-3.61-.72-5.28A67.8,67.8,0,0,0,217.22,150.27Z" transform="translate(-18.92 -26)" fill="#b2857f"></path><path d="M245.82,116.87s28.6,37.4,19.57,50.62-47.18-2.18-47.18-2.18l3.71-10.95s26.8,3.39,27,.4-17-20.18-17-20.18S228.82,109.42,245.82,116.87Z" transform="translate(-18.92 -26)" fill="#F9EE95"></path><polygon points="83.27 119.12 76.41 112.04 74.44 108.8 69.69 108.8 67.73 106.24 61.33 106.24 63.44 109.48 55.83 109.48 65.47 119.5 57.7 127.87 65.55 127.87 63.35 130.5 69.31 130.5 71.86 126.96 76.17 126.96 83.27 119.12" fill="#F9EE95"></polygon><polygon points="65.47 119.5 83.27 119.5 76.41 112.04 74.44 108.8 69.69 108.8 74.38 117.69 69.17 117.69 63.44 109.48 55.83 109.48 65.47 119.5" fill="#020202" opacity="0.1" style="isolation: isolate;"></polygon><path d="M183,145.05a1.34,1.34,0,0,1-1.35,1.35H91.22a1.36,1.36,0,1,1-.23-2.71h90.65a1.36,1.36,0,0,1,1.36,1.36Z" transform="translate(-18.92 -26)" fill="#F9EE95"></path><path d="M180.68,145.05v1.35H91.22a1.34,1.34,0,0,1-1.36-1.34h90.82Z" transform="translate(-18.92 -26)" fill="#020202" opacity="0.1" style="isolation: isolate;"></path><polygon points="63.35 130.5 71.66 120.4 76.63 120.4 69.31 130.5 63.35 130.5" fill="#020202" opacity="0.1" style="isolation: isolate;"></polygon><polygon points="156.47 113.92 157.97 119.05 156.47 123.47 168.13 119.4 156.47 113.92" fill="#F9EE95"></polygon><polygon points="156.47 113.92 157.97 119.05 156.47 123.47 168.13 119.4 156.47 113.92" fill="url(#linear-gradient)"></polygon><circle cx="97.29" cy="88.85" r="18.45" fill="#F9EE95"></circle><path d="M108.53,120a1.47,1.47,0,0,0,.38.48,2.61,2.61,0,0,0,.8.4c3.43,1.19,7,2.21,10.63,1.88a2.68,2.68,0,0,0,1.11-.28,1,1,0,0,0,.55-.93,4.13,4.13,0,0,1-.07-.49c0-.62,1-.72,1.24-1.28a1,1,0,0,0-.29-1.06c-.27-.28-.61-.48-.87-.77a3.1,3.1,0,0,0,1.1-1,1.25,1.25,0,0,0-.09-1.42c-.27-.29-.75-.45-.79-.84s.35-.61.57-.89a1.63,1.63,0,0,0-.39-2.2,3.48,3.48,0,0,0-2.36-.61,18.86,18.86,0,0,1-2.49.11.7.7,0,0,1-.55-.22c-.16-.22-.06-.54,0-.8a5.89,5.89,0,0,0-.37-5.31,1.8,1.8,0,0,0-1.75-.92,1.53,1.53,0,0,0-1,.92,6.31,6.31,0,0,0-.32,1.35c-.48,2.74-1.78,5.67-4.55,6.69-.47.17-.89.08-1.2.51a2.42,2.42,0,0,0-.3,1.32,11.44,11.44,0,0,0,.81,5.14Z" transform="translate(-18.92 -26)" fill="#fff"></path><circle cx="139.96" cy="165.98" r="13.97" fill="#F9EE95"></circle><path d="M153,195.8a1.13,1.13,0,0,0,.28.37,1.9,1.9,0,0,0,.6.31,19.45,19.45,0,0,0,8,1.56,1.89,1.89,0,0,0,.84-.2.77.77,0,0,0,.44-.7c0-.13-.06-.25-.06-.37,0-.47.77-.53,1-1a.75.75,0,0,0-.21-.8c-.2-.21-.45-.37-.65-.59a2.39,2.39,0,0,0,.85-.76,1,1,0,0,0-.05-1.08c-.2-.22-.56-.35-.58-.64s.26-.46.44-.67a1.25,1.25,0,0,0-.27-1.67,2.64,2.64,0,0,0-1.78-.49,14.74,14.74,0,0,1-1.88,0,.55.55,0,0,1-.42-.17c-.12-.17,0-.41,0-.61a4.48,4.48,0,0,0-.22-4,1.37,1.37,0,0,0-1.31-.72,1.15,1.15,0,0,0-.74.69,4.33,4.33,0,0,0-.26,1c-.4,2.07-1.42,4.27-3.53,5-.36.12-.67.05-.91.37a1.83,1.83,0,0,0-.24,1,8.38,8.38,0,0,0,.54,3.9A1.31,1.31,0,0,0,153,195.8Z" transform="translate(-18.92 -26)" fill="#fff"></path><circle cx="83.81" cy="151.27" r="12.44" fill="#F9EE95"></circle><path d="M102.35,175.23s-4.54-5.51-7.41-.29,9.1,9.87,9.1,9.87,6.73-6.2,6-9.94S103.19,169.67,102.35,175.23Z" transform="translate(-18.92 -26)" fill="#fff"></path><circle cx="119.71" cy="124.79" r="19.89" fill="#F9EE95"></circle><path d="M138,147.54s-7.28-8.83-11.86-.48,14.55,15.79,14.55,15.79,10.76-9.91,9.65-15.89S139.36,138.64,138,147.54Z" transform="translate(-18.92 -26)" fill="#fff"></path><circle cx="269.84" cy="57.02" r="6.01" fill="#F9EE95" opacity="0.22" style="isolation: isolate;"></circle></svg>