<svg width="100" height="101" viewBox="0 0 100 101" fill="none" xmlns="http://www.w3.org/2000/svg">
<path d="M84.9348 15.1199C75.6055 5.76836 63.1812 0.625 49.9777 0.625C22.7246 0.625 0.548047 22.8016 0.548047 50.0547C0.548047 58.7605 2.81914 67.266 7.13867 74.7695L0.125 100.375L26.3316 93.4949C33.5457 97.4359 41.6727 99.5066 49.9555 99.5066H49.9777C77.2086 99.5066 99.875 77.3301 99.875 50.077C99.875 36.8734 94.2641 24.4715 84.9348 15.1199ZM49.9777 91.1793C42.5855 91.1793 35.3492 89.1977 29.048 85.457L27.5562 84.5664L12.0148 88.641L16.1562 73.4781L15.1766 71.9195C11.0574 65.3734 8.89766 57.8254 8.89766 50.0547C8.89766 27.4105 27.3336 8.97461 50 8.97461C60.977 8.97461 71.2859 13.2496 79.0344 21.0203C86.7828 28.791 91.5477 39.1 91.5254 50.077C91.5254 72.7434 72.6219 91.1793 49.9777 91.1793ZM72.5106 60.4082C71.2859 59.7848 65.2074 56.8012 64.0719 56.4004C62.9363 55.9773 62.1125 55.777 61.2887 57.0238C60.4648 58.2707 58.1047 61.0316 57.3699 61.8777C56.6574 62.7016 55.9227 62.8129 54.698 62.1895C47.4395 58.5602 42.6746 55.7102 37.8875 47.4941C36.6184 45.3121 39.1566 45.468 41.5168 40.7477C41.9176 39.9238 41.7172 39.2113 41.4055 38.5879C41.0938 37.9645 38.6223 31.8859 37.598 29.4145C36.5961 27.0098 35.5719 27.3438 34.8148 27.2992C34.1023 27.2547 33.2785 27.2547 32.4547 27.2547C31.6309 27.2547 30.2949 27.5664 29.1594 28.791C28.0238 30.0379 24.8398 33.0215 24.8398 39.1C24.8398 45.1785 29.2707 51.0566 29.8719 51.8805C30.4953 52.7043 38.5777 65.173 50.9797 70.5391C58.8172 73.9234 61.8898 74.2129 65.8086 73.634C68.191 73.2777 73.1117 70.6504 74.1359 67.7559C75.1602 64.8613 75.1602 62.3898 74.8484 61.8777C74.559 61.3211 73.7352 61.0094 72.5106 60.4082Z" fill="#A0A0A0"/>
</svg>
